<?xml version="1.0" standalone="no"?>
<!DOCTYPE svg PUBLIC "-//W3C//DTD SVG 20010904//EN"
 "http://www.w3.org/TR/2001/REC-SVG-20010904/DTD/svg10.dtd">
<svg version="1.0" xmlns="http://www.w3.org/2000/svg"
 width="642.000000pt" height="525.000000pt" viewBox="0 0 642.000000 525.000000"
 preserveAspectRatio="xMidYMid meet">

<g transform="translate(0.000000,525.000000) scale(0.100000,-0.100000)"
fill="#000000" stroke="none">
<path d="M3260 4805 c0 -9 -19 -24 -42 -34 -24 -10 -133 -63 -243 -116 -142
-70 -210 -98 -236 -98 l-36 0 9 -38 c8 -29 17 -41 42 -50 40 -16 66 -19 66 -8
0 5 3 9 8 8 17 -3 49 14 59 31 10 15 9 17 -10 13 -22 -4 -22 -4 -3 11 11 9 28
14 38 10 10 -3 18 -1 18 5 0 6 6 11 14 11 8 0 22 7 30 16 17 16 210 114 226
114 17 0 11 -18 -7 -23 -14 -4 -14 -5 3 -6 23 -1 94 25 94 35 0 3 -7 4 -15 1
-26 -11 -26 10 1 27 14 10 33 14 44 11 31 -10 25 31 -9 66 -33 32 -51 37 -51
14z m-430 -315 c0 -11 -39 -34 -46 -27 -6 6 25 37 37 37 5 0 9 -4 9 -10z"/>
<path d="M3533 4788 c-19 -11 -7 -13 80 -14 68 -1 123 -8 166 -21 l63 -19 -83
-38 c-139 -63 -362 -176 -388 -195 l-24 -18 22 -22 c26 -26 32 -24 33 16 1 32
0 31 136 90 62 27 86 33 95 24 6 -6 19 -11 29 -11 10 0 18 -4 18 -10 0 -5 -4
-10 -8 -10 -5 0 -16 -6 -26 -13 -15 -11 -12 -12 22 -9 27 3 49 -3 73 -17 l34
-21 -32 -12 c-18 -7 -33 -19 -33 -28 0 -8 -5 -22 -10 -30 -8 -12 -12 -12 -18
-3 -10 16 -39 18 -129 9 -52 -6 -73 -5 -73 3 0 7 7 14 15 17 8 4 12 10 9 15
-3 5 0 9 5 9 6 0 10 6 9 12 -2 7 7 14 20 16 12 2 22 8 22 13 0 6 -8 8 -18 5
-10 -3 -37 -7 -60 -8 -45 -1 -54 -17 -31 -59 17 -33 5 -51 -27 -39 -15 6 -29
8 -32 5 -9 -8 61 -138 77 -143 9 -3 11 0 6 8 -5 8 1 7 16 -3 52 -37 68 -31
499 183 90 44 166 83 169 85 2 3 -8 9 -23 14 -14 6 -61 35 -103 65 -79 54
-212 126 -235 126 -7 0 -26 7 -43 17 -39 21 -191 29 -222 11z m292 -228 c3 -5
-1 -10 -10 -10 -9 0 -13 5 -10 10 3 6 8 10 10 10 2 0 7 -4 10 -10z m-19 -145
c-11 -8 -27 -15 -35 -15 -10 0 -7 6 9 14 33 19 50 19 26 1z m-299 -55 l33 -31
37 19 c58 29 103 37 103 18 0 -20 -34 -42 -96 -61 -56 -17 -75 -19 -54 -5 12
8 11 10 -6 10 -22 0 -58 32 -48 43 4 4 1 13 -6 22 -22 27 4 16 37 -15z"/>
<path d="M3100 4620 c-18 -12 -2 -12 25 0 13 6 15 9 5 9 -8 0 -22 -4 -30 -9z"/>
<path d="M3045 4595 c-41 -17 -105 -82 -105 -105 0 -28 9 -25 64 20 28 23 59
40 75 41 14 0 44 2 65 4 35 4 89 -4 142 -20 10 -4 3 3 -16 14 -26 15 -54 20
-108 21 -62 0 -74 3 -80 19 -6 17 -10 18 -37 6z"/>
<path d="M3038 4509 c-37 -19 -108 -101 -108 -125 0 -7 14 -15 30 -19 19 -4
30 -13 30 -23 0 -12 3 -13 8 -5 5 9 19 9 47 3 109 -25 264 -59 292 -65 31 -6
32 -6 38 39 6 40 3 51 -30 105 -20 33 -40 63 -44 66 -10 6 -128 30 -186 38
-29 4 -50 0 -77 -14z"/>
<path d="M2916 4503 c-6 -14 -5 -15 5 -6 7 7 10 15 7 18 -3 3 -9 -2 -12 -12z"/>
<path d="M3690 4510 c0 -5 5 -10 10 -10 6 0 10 5 10 10 0 6 -4 10 -10 10 -5 0
-10 -4 -10 -10z"/>
<path d="M4402 4494 c10 -10 20 -16 22 -13 3 3 -5 11 -17 18 -21 13 -21 12 -5
-5z"/>
<path d="M4422 4459 c-28 -10 -28 -35 -2 -49 24 -13 18 -27 -16 -40 -27 -11
-35 -60 -10 -60 20 0 76 49 85 73 7 17 10 15 25 -17 10 -21 18 -52 19 -71 1
-18 5 -31 10 -28 4 2 7 1 7 -2 0 -9 -27 -35 -37 -35 -5 0 -16 -9 -26 -20 -18
-22 -37 -26 -37 -9 0 8 -5 8 -15 -1 -8 -7 -12 -16 -10 -21 7 -11 -64 -59 -87
-59 -10 0 -18 -4 -18 -8 0 -5 -18 -16 -39 -24 -37 -15 -39 -15 -48 6 -10 20
-10 20 -26 -9 -11 -20 -16 -24 -17 -13 -1 58 -49 88 -84 52 -22 -21 -20 -32 7
-37 l22 -4 -22 -2 c-34 -2 -28 -21 7 -21 18 0 30 -5 30 -13 0 -15 -61 -47 -88
-47 -10 0 -23 -5 -29 -11 -6 -6 -30 -12 -54 -14 -24 -2 -43 -7 -42 -11 3 -11
-54 -32 -89 -33 -15 -1 -30 -5 -33 -11 -13 -21 -32 -9 -49 31 -10 22 -15 43
-12 46 3 4 6 1 6 -5 0 -6 18 -20 39 -30 38 -19 40 -19 78 -1 21 10 27 16 13
12 -49 -13 -120 9 -120 37 0 14 22 12 44 -5 22 -17 76 -20 76 -5 0 6 -8 10
-19 10 -10 0 -38 9 -62 19 -24 11 -57 21 -74 22 -16 2 -48 18 -69 36 -67 55
-114 38 -102 -37 5 -32 3 -40 -9 -40 -10 0 -15 -10 -15 -30 0 -35 -23 -49 -51
-32 -24 16 -29 15 -29 -3 0 -22 38 -39 56 -24 8 6 14 8 14 4 0 -4 7 -2 15 5
18 15 30 8 48 -30 11 -21 12 -30 3 -33 -6 -3 -2 -5 9 -4 11 0 42 -10 68 -23
43 -22 51 -23 83 -11 26 9 39 10 47 2 6 -6 16 -11 22 -11 5 0 -1 9 -14 19
l-24 18 56 7 c68 9 188 47 275 87 35 16 66 29 69 29 16 0 314 152 351 179 45
34 55 68 28 106 -7 11 -19 38 -26 60 -14 43 -32 75 -65 116 -17 20 -26 24 -43
18z m113 -278 c-3 -6 -11 -11 -16 -11 -5 0 -4 6 3 14 14 16 24 13 13 -3z
m-887 -138 c-20 -5 -33 -44 -24 -68 5 -14 8 -14 31 1 19 12 24 22 20 38 -5 17
-2 16 19 -8 30 -36 38 -72 19 -87 -11 -9 -12 -8 -7 5 3 9 1 16 -5 16 -10 0
-31 -39 -31 -57 0 -3 11 -3 25 -1 27 6 35 -9 9 -19 -24 -9 -61 13 -78 46 -36
70 -27 142 17 140 17 -1 18 -2 5 -6z m-74 -69 c3 -8 2 -12 -4 -9 -6 3 -10 10
-10 16 0 14 7 11 14 -7z"/>
<path d="M3660 3960 c0 -5 5 -10 10 -10 6 0 10 5 10 10 0 6 -4 10 -10 10 -5 0
-10 -4 -10 -10z"/>
<path d="M2756 4421 c-10 -11 -16 -26 -14 -34 2 -9 10 -2 20 19 20 39 18 42
-6 15z"/>
<path d="M2743 4307 c3 -32 8 -61 11 -64 3 -4 3 20 0 53 -4 32 -9 61 -11 64
-3 3 -3 -21 0 -53z"/>
<path d="M3860 4336 c0 -2 9 -6 20 -9 11 -3 20 -1 20 4 0 5 -9 9 -20 9 -11 0
-20 -2 -20 -4z"/>
<path d="M4449 4313 c-1 -4 -2 -12 -4 -18 -1 -5 -3 -18 -3 -27 -2 -22 -25 -23
-57 -2 -22 14 -23 14 -18 -5 11 -44 61 -55 109 -25 24 14 30 25 27 43 -4 29
-2 27 -30 35 -13 4 -24 4 -24 -1z"/>
<path d="M3056 4265 c4 -8 10 -15 14 -15 5 0 10 -10 13 -22 3 -21 4 -21 11 -5
6 12 3 24 -9 37 -21 24 -37 26 -29 5z"/>
<path d="M2937 4252 c-16 -3 -18 -12 -15 -63 2 -42 -1 -60 -10 -64 -7 -3 -10
-9 -7 -15 10 -17 -2 -12 -50 21 -36 24 -44 34 -33 41 9 6 6 7 -9 3 -17 -5 -23
-2 -23 9 0 9 -4 16 -10 16 -5 0 -10 8 -11 18 0 9 -3 12 -5 5 -9 -22 29 -64 97
-109 38 -24 79 -48 93 -54 14 -5 32 -22 39 -37 8 -15 25 -37 36 -48 19 -16 26
-17 53 -7 17 6 35 9 39 6 14 -9 10 25 -7 58 -15 28 -15 30 0 25 24 -9 19 11
-9 39 -14 14 -38 45 -52 67 -14 23 -32 46 -40 50 -11 7 -12 12 -2 23 10 12 9
13 -4 8 -8 -3 -24 -1 -34 3 -10 5 -26 8 -36 5z m57 -70 c-6 -4 -14 -16 -17
-26 -10 -25 -21 -13 -12 13 3 12 14 21 23 21 10 0 13 -3 6 -8z m51 -52 c21
-41 20 -116 -2 -125 -23 -8 -58 34 -71 87 -11 44 -10 46 18 18 20 -20 47 -19
34 1 -3 5 -9 7 -14 4 -4 -3 -3 6 3 20 7 14 13 25 14 25 1 0 9 -13 18 -30z"/>
<path d="M3030 4070 c0 -5 5 -10 10 -10 6 0 10 5 10 10 0 6 -4 10 -10 10 -5 0
-10 -4 -10 -10z"/>
<path d="M3024 4034 c3 -9 6 -19 6 -22 0 -9 20 21 20 31 0 4 -7 7 -16 7 -11 0
-14 -5 -10 -16z"/>
<path d="M4580 4251 c0 -4 3 -11 6 -14 4 -4 8 -20 9 -37 2 -17 1 -29 -2 -27
-2 3 -16 -6 -31 -20 -38 -35 -174 -114 -362 -210 -36 -18 -54 -30 -40 -27 43
11 358 177 408 214 49 37 58 55 48 95 -5 21 -36 44 -36 26z"/>
<path d="M3030 4234 c0 -13 18 -39 24 -34 2 3 -2 14 -10 24 -8 11 -14 16 -14
10z"/>
<path d="M4297 4223 c-14 -13 -7 -81 8 -87 12 -4 15 4 15 44 0 47 -7 60 -23
43z"/>
<path d="M3900 4176 c0 -2 7 -7 16 -10 8 -3 12 -2 9 4 -6 10 -25 14 -25 6z"/>
<path d="M4395 3985 l-400 -183 -7 -1089 -6 -1088 53 -54 53 -54 60 48 c34 26
62 55 64 65 4 26 541 381 589 390 37 7 108 45 121 64 10 15 10 2063 1 2069 -5
3 -35 7 -68 11 l-60 5 -400 -184z m82 -45 c-340 -170 -360 -179 -388 -167 -28
12 -15 18 339 179 202 92 376 167 387 167 11 0 -141 -81 -338 -179z m408 -832
c-6 -904 -8 -1004 -23 -1015 -9 -7 -20 -13 -25 -13 -10 0 -3 1137 10 1688 3
149 3 272 -1 272 -4 0 -103 -50 -219 -112 -117 -62 -264 -139 -327 -173 l-115
-61 -2 -119 c-1 -66 -7 -529 -13 -1030 l-11 -910 -22 -23 c-17 -19 -22 -20
-27 -8 -5 16 4 1074 16 1755 l6 384 372 183 c204 101 375 183 380 184 5 0 5
-432 1 -1002z m-70 105 c-4 -434 -11 -869 -15 -968 -4 -99 -5 250 -3 775 3
525 6 961 9 968 2 6 6 12 10 12 3 0 3 -354 -1 -787z m-43 -190 c-4 -945 -4
-948 -25 -963 -110 -80 -552 -368 -557 -362 -5 7 -2 295 15 1478 l7 501 252
134 c138 74 260 139 271 146 11 6 25 11 30 12 7 1 9 -304 7 -946z m-689 726
c23 -10 23 -12 20 -157 -2 -81 -8 -561 -14 -1067 -5 -506 -11 -921 -13 -922
-1 -1 -12 4 -24 13 l-22 15 0 742 c0 812 9 1387 21 1387 4 0 19 -5 32 -11z"/>
<path d="M4474 3177 l-91 -42 -7 -155 c-3 -85 -6 -192 -6 -238 l0 -83 30 16
c16 8 71 42 121 74 l92 59 -2 198 c-2 196 -5 215 -36 213 -5 0 -51 -19 -101
-42z m76 -13 c-89 -51 -119 -64 -125 -54 -3 6 27 26 67 45 84 41 124 47 58 9z
m40 -176 l0 -163 -48 -31 c-26 -17 -59 -39 -74 -48 l-28 -18 0 175 0 175 63
35 c34 20 68 36 75 36 9 1 12 -38 12 -161z m-170 10 c0 -126 -11 -288 -20
-288 -4 0 -6 10 -5 23 1 12 3 97 4 190 1 104 5 167 11 167 6 0 10 -37 10 -92z"/>
<path d="M4500 3025 c-7 -9 -12 -28 -11 -43 1 -15 3 -55 4 -89 1 -35 5 -63 9
-63 12 0 58 23 58 29 0 3 -5 23 -9 45 -6 25 -6 47 1 61 24 52 -19 100 -52 60z"/>
<path d="M3112 4148 c5 -15 28 -23 28 -10 0 5 -7 13 -16 16 -10 4 -14 1 -12
-6z"/>
<path d="M3241 4144 c0 -11 3 -14 6 -6 3 7 2 16 -1 19 -3 4 -6 -2 -5 -13z"/>
<path d="M3694 4122 c11 -12 27 -22 36 -22 10 0 23 -7 30 -15 15 -18 69 -19
157 -4 40 7 61 15 56 22 -4 6 0 8 10 4 11 -4 17 -1 17 7 0 8 -7 17 -16 20 -8
3 -13 2 -10 -3 3 -5 -1 -14 -8 -20 -9 -8 -16 -8 -20 -2 -4 6 -18 3 -36 -6 -22
-10 -42 -13 -73 -7 -23 4 -45 7 -49 6 -5 -1 -8 3 -8 8 0 6 -7 10 -15 10 -8 0
-15 6 -15 13 0 6 -5 4 -11 -6 -10 -17 -12 -17 -37 -1 l-27 17 19 -21z"/>
<path d="M3150 4121 c0 -5 7 -11 14 -14 10 -4 13 -1 9 9 -6 15 -23 19 -23 5z"/>
<path d="M4050 4070 c0 -29 16 -43 36 -31 17 9 17 10 2 11 -9 0 -22 8 -27 18
-8 13 -10 14 -11 2z"/>
<path d="M4007 4036 c10 -13 20 -20 21 -15 5 12 -17 39 -30 39 -5 0 -1 -11 9
-24z"/>
<path d="M2350 4000 c-38 -6 -40 -7 -12 -8 17 -1 32 -6 32 -11 0 -4 11 -7 25
-6 14 2 25 0 25 -5 0 -4 21 -13 47 -21 55 -15 159 -82 223 -145 52 -50 71 -54
105 -20 13 13 26 22 29 19 2 -3 2 5 -1 18 -5 17 -3 20 8 15 8 -4 -4 9 -26 29
-80 72 -232 146 -270 131 -9 -3 -14 -2 -11 3 6 9 -111 10 -174 1z"/>
<path d="M3200 3986 c0 -15 32 -46 48 -46 7 0 11 10 9 23 -1 17 2 21 18 19 11
-2 17 -1 14 3 -4 3 -25 8 -48 10 -29 3 -41 1 -41 -9z"/>
<path d="M3360 3940 c13 -8 13 -10 1 -10 -23 0 0 -17 34 -24 17 -4 25 -3 19 1
-6 4 -13 16 -17 26 -4 9 -16 17 -29 17 -19 0 -20 -2 -8 -10z"/>
<path d="M4038 3873 c-48 -20 -86 -38 -84 -41 5 -4 157 57 171 69 13 13 8 11
-87 -28z"/>
<path d="M3918 3823 c7 -3 16 -2 19 1 4 3 -2 6 -13 5 -11 0 -14 -3 -6 -6z"/>
<path d="M2908 3813 c7 -3 16 -2 19 1 4 3 -2 6 -13 5 -11 0 -14 -3 -6 -6z"/>
<path d="M3853 3813 c9 -2 25 -2 35 0 9 3 1 5 -18 5 -19 0 -27 -2 -17 -5z"/>
<path d="M2955 3800 c12 -4 27 -15 34 -24 7 -9 62 -39 122 -67 104 -50 135
-72 87 -63 -13 2 -16 1 -8 -2 8 -4 23 -11 32 -16 15 -7 16 -5 10 14 -6 16 -42
40 -114 78 -58 30 -117 63 -131 73 -15 9 -32 17 -39 16 -7 0 -4 -4 7 -9z"/>
<path d="M2722 3728 c-7 -7 -33 -15 -60 -19 -45 -6 -46 -6 -9 -8 34 -1 97 21
97 34 0 9 -16 5 -28 -7z"/>
<path d="M2903 3733 c-27 -5 -29 -16 -8 -33 11 -9 20 -8 44 6 21 13 27 20 18
26 -13 8 -17 8 -54 1z"/>
<path d="M3441 3609 c-187 -85 -287 -126 -291 -118 -5 6 -9 3 -12 -9 -3 -10
-15 -21 -27 -25 -17 -4 -21 -1 -21 17 0 33 -19 46 -64 45 l-41 -1 39 -8 c39
-7 56 -23 56 -51 0 -14 -70 -52 -159 -87 -8 -3 -3 13 14 42 15 25 28 61 30 79
l3 34 -50 -13 c-34 -9 -56 -10 -68 -4 -28 15 -38 11 -16 -5 22 -17 92 -20 101
-5 14 23 23 8 10 -17 -8 -16 -24 -49 -36 -76 -12 -28 -32 -53 -48 -62 l-28
-14 -6 -143 c-4 -79 -7 -627 -7 -1218 l-1 -1075 43 -41 c77 -72 69 -71 142
-14 37 29 66 60 66 70 0 23 614 435 650 435 14 0 50 13 81 30 l57 29 4 281 c3
154 6 572 7 929 1 357 4 752 7 877 l6 227 -41 6 c-118 17 -98 23 -400 -115z
m313 71 c-5 -5 -183 -96 -394 -201 -334 -165 -389 -190 -417 -184 -18 3 -33 9
-33 13 1 9 819 381 840 381 9 1 11 -2 4 -9z m66 -843 c0 -459 -3 -962 -7
-1119 l-6 -286 -25 -11 c-13 -7 -26 -10 -27 -9 -3 3 9 1048 20 1766 4 265 3
412 -3 412 -5 0 -113 -55 -238 -121 -126 -67 -288 -153 -360 -190 l-131 -69
-7 -578 c-4 -317 -11 -835 -16 -1150 l-8 -573 -24 -19 c-13 -11 -27 -19 -32
-20 -5 0 -6 152 -2 348 3 191 8 579 11 862 3 283 8 667 11 852 l6 337 32 11
c17 6 200 96 406 200 206 104 381 189 388 189 9 1 12 -172 12 -832z m-75 161
c-4 -304 -11 -789 -15 -1078 l-7 -525 -1 791 c-2 858 6 1364 21 1364 5 0 6
-210 2 -552z m-45 508 c0 -3 -4 -8 -10 -11 -5 -3 -10 -1 -10 4 0 6 5 11 10 11
6 0 10 -2 10 -4z m-143 -71 c0 -8 -4 -12 -9 -9 -5 3 -6 10 -3 15 9 13 12 11
12 -6z m-152 -75 c-3 -5 -12 -10 -18 -10 -7 0 -6 4 3 10 19 12 23 12 15 0z
m-455 -189 c1 -203 -23 -2286 -26 -2289 -1 -2 -14 4 -28 15 l-26 18 3 935 c1
514 3 1048 5 1186 l3 252 34 -11 35 -10 0 -96z m310 114 c0 -2 -10 -9 -22 -15
-22 -11 -22 -10 -4 4 21 17 26 19 26 11z m191 -166 c15 -6 32 -21 39 -34 7
-14 16 -23 19 -21 11 7 12 -89 1 -129 -16 -56 -60 -85 -129 -85 -68 0 -105 22
-131 77 -20 43 -26 93 -12 107 4 4 7 11 7 16 0 18 56 70 82 76 16 3 33 7 38 9
13 5 52 -3 86 -16z m29 -476 c0 -5 -37 -27 -81 -51 -57 -30 -85 -40 -92 -33
-7 7 15 23 74 51 87 41 99 45 99 33z m6 -399 c-5 -12 -155 -108 -161 -102 -2
2 -1 90 2 195 l6 192 76 40 76 40 3 -177 c1 -97 1 -181 -2 -188z m-186 81 c0
-125 -4 -206 -10 -210 -7 -4 -10 68 -10 210 0 142 3 214 10 210 6 -4 10 -85
10 -210z m190 -139 c0 -2 -7 -7 -16 -10 -8 -3 -12 -2 -9 4 6 10 25 14 25 6z
m-80 -41 c-7 -8 -17 -15 -23 -15 -6 0 -2 7 9 15 25 19 30 19 14 0z m-85 -55
c-3 -5 -12 -10 -18 -10 -7 0 -6 4 3 10 19 12 23 12 15 0z m89 -858 c3 -5 -1
-9 -9 -9 -8 0 -12 4 -9 9 3 4 7 8 9 8 2 0 6 -4 9 -8z m-64 -36 c0 -3 -4 -8
-10 -11 -5 -3 -10 -1 -10 4 0 6 5 11 10 11 6 0 10 -2 10 -4z m-95 -76 c-3 -5
-12 -10 -18 -10 -7 0 -6 4 3 10 19 12 23 12 15 0z m-65 -44 c0 -2 -7 -7 -16
-10 -8 -3 -12 -2 -9 4 6 10 25 14 25 6z"/>
<path d="M3402 3015 c-14 -29 2 -34 18 -6 12 24 13 31 2 31 -5 0 -14 -11 -20
-25z"/>
<path d="M3357 2960 c-30 -35 -22 -50 26 -50 31 0 38 3 27 10 -8 5 -23 10 -32
10 -22 0 -23 14 -2 34 8 9 12 16 7 16 -5 0 -16 -9 -26 -20z"/>
<path d="M3384 2443 c-15 -34 -15 -41 -1 -65 12 -20 14 -42 10 -84 l-6 -58 34
21 c19 11 32 26 30 34 -2 8 -4 52 -5 99 -1 80 -2 85 -24 88 -18 3 -26 -4 -38
-35z"/>
<path d="M2741 3696 c-7 -8 -31 -24 -54 -35 -23 -12 -35 -21 -26 -21 15 0 99
55 99 65 0 9 -7 5 -19 -9z"/>
<path d="M2488 3650 c12 -5 53 -12 90 -15 49 -4 61 -3 44 5 -12 5 -53 12 -90
15 -49 4 -61 3 -44 -5z"/>
<path d="M2636 3462 c-30 -67 -58 -94 -107 -103 -24 -4 -69 -15 -99 -24 -62
-18 -112 -15 -234 16 -43 11 -80 18 -82 16 -11 -10 151 -50 222 -54 68 -5 89
-2 129 16 26 11 62 21 80 21 18 0 39 8 47 18 20 22 71 123 65 128 -2 2 -12
-13 -21 -34z"/>
<path d="M975 3411 c-39 -8 -39 -8 -7 -10 17 0 32 -5 32 -10 0 -4 11 -7 25 -6
14 2 25 0 25 -4 0 -4 19 -14 42 -20 55 -17 182 -99 233 -150 45 -47 75 -52
103 -16 11 13 22 22 24 19 3 -2 3 7 0 21 -7 37 -74 91 -170 138 -76 36 -91 40
-175 43 -51 1 -110 -1 -132 -5z"/>
<path d="M1988 3383 c7 -3 16 -2 19 1 4 3 -2 6 -13 5 -11 0 -14 -3 -6 -6z"/>
<path d="M2078 3373 c7 -3 16 -2 19 1 4 3 -2 6 -13 5 -11 0 -14 -3 -6 -6z"/>
<path d="M1752 3290 c-23 -22 -47 -50 -53 -63 -6 -12 -10 -20 -7 -17 2 3 28
31 58 63 61 66 63 75 2 17z"/>
<path d="M1606 3260 c-48 -51 -56 -66 -31 -56 8 3 27 -6 43 -19 16 -13 72 -44
124 -68 100 -47 127 -67 80 -60 -24 4 -24 2 7 -12 19 -8 36 -13 39 -10 3 3 1
5 -5 5 -6 0 -10 7 -9 17 1 11 -30 33 -99 69 -55 29 -102 53 -104 53 -2 1 3 9
10 19 13 15 12 16 -3 3 -15 -11 -22 -11 -44 4 l-25 16 24 32 c13 18 35 38 48
44 16 9 19 13 8 13 -9 0 -37 -22 -63 -50z"/>
<path d="M1538 3223 c7 -3 16 -2 19 1 4 3 -2 6 -13 5 -11 0 -14 -3 -6 -6z"/>
<path d="M2270 3108 c-146 -66 -273 -120 -284 -120 -10 1 -16 -2 -12 -5 7 -8
-184 -94 -194 -88 -4 3 -10 -1 -13 -9 -3 -7 -15 -16 -26 -19 -17 -4 -21 -1
-21 19 0 27 -27 44 -67 43 -27 -1 -27 -1 6 -9 18 -4 37 -14 42 -22 20 -31 8
-45 -71 -81 l-80 -36 -2 -168 c-1 -92 -2 -222 -3 -288 -1 -66 -2 -590 -4
-1164 l-2 -1045 58 -58 c31 -32 61 -58 66 -58 19 0 145 111 151 133 8 35 675
477 718 477 17 0 56 14 88 31 l57 32 6 285 c4 157 7 508 7 781 0 486 4 548 31
511 8 -12 9 -9 3 10 -3 14 -13 32 -21 42 -12 13 -14 50 -11 205 l3 188 38 66
c20 36 37 72 37 80 0 7 -10 -5 -22 -27 -13 -23 -31 -52 -40 -65 -17 -24 -17
-24 -17 -2 -1 12 4 25 9 28 12 7 63 105 55 105 -2 0 -14 -18 -25 -39 -11 -22
-23 -42 -28 -44 -4 -3 -6 88 -4 202 l4 208 -53 7 c-30 4 -67 9 -84 11 -23 4
-92 -24 -295 -117z m-128 -158 l-442 -219 -38 13 -37 13 50 22 c28 12 230 104
450 205 568 261 577 242 17 -34z m493 -1012 c-7 -1210 -7 -1223 -27 -1240 -48
-42 -49 -36 -43 225 9 429 27 2138 22 2143 -3 3 -63 -26 -133 -64 -71 -37
-252 -133 -401 -212 l-273 -144 0 -91 c0 -50 -7 -615 -15 -1256 l-15 -1164
-31 -28 c-17 -16 -32 -27 -33 -25 -2 2 3 476 10 1053 7 578 13 1167 13 1310
l1 261 458 226 c251 124 461 227 465 227 5 1 5 -549 2 -1221z m-78 670 c-4
-227 -10 -726 -13 -1108 -4 -382 -10 -729 -14 -770 -5 -41 -6 452 -3 1095 2
644 6 1176 8 1183 3 6 10 12 16 12 9 0 11 -97 6 -412z m-908 111 l31 -11 0
-121 c1 -330 -21 -2343 -26 -2416 l-6 -84 -30 31 -30 30 7 1291 c4 710 11
1291 15 1291 4 0 21 -5 39 -11z m559 -179 c65 -40 87 -109 56 -176 -24 -51
-63 -74 -123 -74 -44 0 -56 5 -90 35 -68 62 -63 152 11 205 49 36 98 39 146
10z m57 -509 c-6 -11 -173 -101 -186 -101 -5 0 -9 6 -9 13 0 7 39 32 88 54 88
41 118 51 107 34z m5 -244 l0 -202 -83 -53 c-46 -28 -86 -52 -90 -52 -4 0 -7
94 -7 209 l0 210 83 45 c45 25 85 46 90 46 4 0 7 -91 7 -203z m-208 -110 c-2
-122 -8 -226 -13 -231 -10 -12 -12 304 -2 407 12 132 20 43 15 -176z"/>
<path d="M2105 2500 c-3 -5 1 -10 9 -10 13 0 16 -14 16 -75 0 -60 3 -75 15
-75 12 0 15 16 15 85 0 83 0 85 -24 85 -14 0 -28 -4 -31 -10z"/>
<path d="M2176 1847 c-32 -25 -40 -90 -15 -123 5 -6 6 -39 2 -74 -3 -36 -2
-61 3 -59 67 32 66 30 59 84 -3 28 -2 69 3 91 14 64 -15 109 -52 81z"/>
<path d="M1360 3141 c0 -6 -19 -14 -42 -19 -39 -9 -40 -10 -12 -11 18 -1 42 7
55 19 13 10 18 19 12 20 -7 0 -13 -4 -13 -9z"/>
<path d="M1530 3138 c-22 -7 -29 -13 -20 -16 8 -3 18 -10 22 -15 4 -7 16 -4
32 7 15 9 32 14 39 11 7 -4 3 1 -7 9 -22 18 -19 18 -66 4z"/>
<path d="M1336 3084 c-50 -36 -54 -44 -8 -20 22 12 74 58 61 55 -2 -1 -26 -16
-53 -35z"/>
<path d="M1112 3060 c9 -6 52 -12 95 -15 l78 -4 -65 14 c-79 17 -134 19 -108
5z"/>
<path d="M1464 2915 c11 -8 26 -16 33 -16 7 -1 19 -2 26 -3 14 -3 71 23 65 29
-2 3 -21 -1 -42 -7 -28 -9 -45 -9 -69 0 -29 10 -30 10 -13 -3z"/>
<path d="M1251 2844 c-26 -49 -39 -65 -60 -69 -14 -3 -56 -14 -92 -25 -86 -26
-144 -25 -259 5 -130 34 -145 30 -30 -6 115 -37 226 -43 277 -16 18 9 47 17
65 17 19 0 44 7 56 16 21 14 88 132 80 139 -2 2 -18 -25 -37 -61z"/>
<path d="M1569 2883 c-6 -16 -21 -51 -35 -78 -39 -82 -27 -93 15 -13 21 40 42
83 45 96 11 32 -12 28 -25 -5z"/>
<path d="M678 2783 c7 -3 16 -2 19 1 4 3 -2 6 -13 5 -11 0 -14 -3 -6 -6z"/>
<path d="M266 2699 c-14 -11 -47 -51 -73 -87 -25 -37 -56 -78 -67 -92 l-21
-25 23 20 c13 10 50 56 84 102 44 60 70 86 92 92 23 7 25 9 10 10 -12 1 -33
-8 -48 -20z"/>
<path d="M367 2681 c-19 -22 -40 -50 -46 -63 -11 -22 -11 -22 6 2 10 14 33 42
52 62 18 21 31 38 28 38 -2 0 -21 -18 -40 -39z"/>
<path d="M1496 2678 c-4 -18 -9 -80 -12 -138 -3 -58 -7 -118 -9 -135 -4 -27
-3 -28 7 -10 10 17 31 303 23 313 -1 1 -5 -12 -9 -30z"/>
<path d="M5565 2666 c-29 -13 -29 -13 17 -8 145 15 324 -89 389 -225 l31 -65
-28 -24 c-16 -13 -37 -26 -46 -29 -10 -4 -18 -12 -18 -18 0 -7 -4 -6 -10 3 -8
13 -10 13 -10 -1 0 -18 -31 -49 -49 -49 -7 0 -9 5 -5 11 3 6 -5 3 -20 -6 -31
-20 -35 -30 -6 -15 35 19 22 3 -17 -21 -50 -31 -77 -58 -95 -93 -14 -27 -13
-31 5 -49 26 -26 84 -40 95 -22 4 6 17 17 30 24 12 7 20 17 16 23 -4 7 -3 8 5
4 6 -4 38 10 73 33 85 58 52 22 -42 -43 -79 -56 -101 -87 -94 -133 2 -13 -1
-23 -8 -23 -6 0 -9 -3 -5 -6 3 -3 15 -3 26 1 17 5 21 15 21 45 0 21 3 46 6 55
4 9 44 41 90 71 107 71 127 99 132 186 4 58 0 76 -25 130 -17 35 -51 86 -76
114 -96 106 -288 171 -382 130z"/>
<path d="M257 2575 c-69 -78 -98 -91 -222 -95 l-40 -2 35 -15 c45 -19 112 -11
160 21 27 18 131 146 118 146 -2 0 -25 -25 -51 -55z"/>
<path d="M326 2401 l4 -144 -42 -40 -43 -40 41 27 c60 39 67 61 54 175 -18
168 -19 169 -14 22z"/>
<path d="M5635 2518 c-29 -17 -41 -31 -65 -73 -19 -33 -19 -36 -3 -33 10 2 25
19 34 38 21 43 46 67 79 73 l25 4 -25 1 c-14 1 -34 -4 -45 -10z"/>
<path d="M5421 2484 c0 -11 3 -14 6 -6 3 7 2 16 -1 19 -3 4 -6 -2 -5 -13z"/>
<path d="M5460 2455 c14 -8 30 -14 35 -14 6 0 -1 6 -15 14 -14 8 -29 14 -35
14 -5 0 1 -6 15 -14z"/>
<path d="M5851 2410 c14 -31 19 -36 19 -24 0 6 -7 19 -16 30 -14 18 -14 18 -3
-6z"/>
<path d="M684 2313 c37 -46 63 -83 58 -83 -4 0 -12 4 -18 8 -5 5 -27 19 -49
32 -34 20 -38 21 -23 4 48 -55 256 -136 343 -133 30 1 30 1 5 9 -21 7 -19 8
14 7 35 -2 41 -6 48 -32 5 -16 6 -55 2 -86 -5 -46 -2 -64 15 -95 23 -45 27
-41 8 7 -9 23 -13 67 -11 133 2 88 0 101 -18 120 -11 11 -27 35 -35 51 l-14
30 4 -30 c2 -16 8 -39 12 -49 8 -18 4 -19 -86 -13 -52 3 -107 11 -124 17 -16
6 -67 50 -113 98 l-84 87 66 -82z"/>
<path d="M5871 2348 c0 -14 -4 -35 -7 -45 -5 -17 -5 -17 6 0 6 10 9 30 7 45
l-4 27 -2 -27z"/>
<path d="M560 2326 c-26 -14 -90 -88 -90 -103 1 -4 20 14 43 40 35 40 50 49
86 54 28 4 38 9 29 14 -18 12 -39 10 -68 -5z"/>
<path d="M1363 2250 c-27 -50 -50 -70 -80 -70 -31 0 -61 -15 -51 -26 4 -3 26
0 49 7 32 11 52 26 77 62 19 26 32 51 29 54 -4 3 -14 -9 -24 -27z"/>
<path d="M1225 2206 c-15 -25 -29 -65 -31 -89 -5 -41 -4 -41 15 16 10 31 27
69 36 83 9 14 14 28 12 31 -3 2 -17 -16 -32 -41z"/>
<path d="M1358 2185 c-20 -34 -44 -86 -53 -116 -9 -30 -23 -69 -31 -87 -22
-50 -35 -120 -28 -147 10 -40 19 -29 16 19 -3 29 4 63 22 107 13 35 28 78 32
94 4 17 25 65 47 107 22 43 39 80 36 82 -2 2 -21 -24 -41 -59z"/>
<path d="M558 2185 c-35 -41 -35 -57 -2 -101 21 -27 28 -49 32 -106 4 -53 11
-81 28 -106 13 -19 24 -28 24 -20 0 9 -9 27 -20 41 -14 18 -20 40 -20 79 0 38
-7 69 -25 104 -31 60 -31 81 -3 111 12 13 20 24 17 26 -2 2 -16 -11 -31 -28z"/>
<path d="M661 2173 c-17 -21 -34 -52 -37 -70 -6 -33 9 -92 33 -130 8 -12 12
-31 8 -43 -8 -26 1 -26 15 0 8 15 5 30 -15 69 -34 69 -33 117 5 169 37 52 32
55 -9 5z"/>
<path d="M1231 2111 c-1 -24 -32 -88 -63 -130 -10 -13 -18 -31 -18 -40 0 -12
3 -11 14 4 37 54 77 144 73 166 l-4 24 -2 -24z"/>
<path d="M233 2060 c0 -30 2 -43 4 -27 2 15 2 39 0 55 -2 15 -4 2 -4 -28z"/>
<path d="M330 2101 c0 -6 -10 -16 -22 -21 -16 -6 -18 -9 -7 -9 19 -1 45 26 35
36 -3 3 -6 1 -6 -6z"/>
<path d="M275 2020 c-9 -30 -9 -100 1 -110 5 -5 9 21 9 60 0 39 -1 70 -2 70
-1 0 -4 -9 -8 -20z"/>
<path d="M1200 1889 c0 -33 -5 -69 -11 -80 -8 -16 -6 -30 10 -62 19 -38 21
-40 21 -15 0 15 -4 29 -9 33 -6 3 -7 43 -4 95 3 50 3 90 -1 90 -3 0 -6 -27 -6
-61z"/>
<path d="M5650 1912 c0 -4 34 -18 75 -30 l74 -22 3 -92 c3 -81 5 -90 18 -77
12 12 14 35 12 101 l-3 86 -72 21 c-76 22 -107 26 -107 13z"/>
<path d="M1097 1850 c-4 -30 -9 -66 -12 -80 -3 -14 2 -7 10 15 9 22 14 58 13
80 -3 39 -3 38 -11 -15z"/>
<path d="M190 1883 c0 -13 29 -38 35 -31 3 3 -4 13 -15 23 -11 10 -20 13 -20
8z"/>
<path d="M655 1880 c-8 -13 21 -66 47 -84 19 -14 20 -16 5 -16 -10 0 -29 11
-42 25 -14 13 -25 20 -25 15 0 -5 12 -18 26 -29 29 -23 69 -28 79 -10 4 6 13
8 20 5 19 -7 10 31 -12 57 -10 11 -32 26 -50 33 -39 17 -40 17 -48 4z"/>
<path d="M284 1853 c-4 -14 -2 -34 5 -44 16 -27 14 -31 -9 -17 -24 15 -48 -3
-52 -41 -4 -29 30 -51 80 -51 29 0 32 3 32 29 0 15 -12 45 -26 66 -17 26 -24
46 -20 61 4 13 4 24 1 24 -2 0 -8 -12 -11 -27z"/>
<path d="M1275 1792 c4 -7 10 -25 15 -41 7 -26 5 -28 -16 -28 -13 0 -31 -6
-39 -13 -14 -12 -13 -16 7 -38 l23 -25 -25 13 c-24 12 -24 12 -8 -6 20 -21 89
-25 96 -6 3 10 7 10 19 0 14 -11 15 -10 8 12 -4 14 -18 36 -31 51 -13 14 -24
32 -24 40 0 8 -7 24 -16 35 -8 10 -13 13 -9 6z"/>
<path d="M1160 1769 c9 -16 8 -24 -4 -38 -19 -21 -21 -47 -4 -57 7 -5 4 -10
-10 -15 -15 -6 -22 -17 -23 -36 -1 -24 -2 -23 -10 10 -10 42 -28 81 -35 74 -2
-2 2 -17 11 -33 8 -16 15 -41 15 -55 0 -56 90 -98 103 -48 4 16 11 19 26 14
12 -3 21 -3 21 0 0 15 -25 53 -57 86 -30 32 -33 40 -24 58 11 19 1 61 -15 61
-2 0 0 -9 6 -21z"/>
<path d="M5197 1663 c-37 -6 -92 -109 -84 -160 7 -39 -9 -93 -28 -93 -24 0
-64 -41 -113 -115 -27 -41 -52 -72 -55 -68 -4 3 -7 20 -7 37 -1 41 -33 112
-58 125 -42 22 -99 8 -161 -40 -23 -18 -24 -18 -100 23 -251 135 -332 178
-341 178 -5 0 -17 -11 -26 -25 -14 -21 -14 -30 -4 -54 8 -21 9 -35 1 -49 -17
-31 -14 -40 20 -57 35 -19 33 -20 46 20 5 17 14 28 19 25 10 -6 10 -34 -1 -67
-6 -18 -1 -25 34 -42 48 -25 51 -25 51 -7 0 8 4 26 9 39 l10 24 111 -57 112
-57 2 -79 c3 -122 37 -164 131 -164 32 0 51 7 73 25 21 18 42 25 72 25 l41 0
-2 -142 c-2 -109 3 -193 24 -352 15 -114 25 -212 22 -216 -3 -4 -20 -11 -39
-14 -35 -7 -46 -21 -46 -62 l0 -24 125 0 125 0 0 69 0 70 71 7 70 7 -5 36 c-3
20 -8 102 -12 183 -5 130 -4 149 10 154 14 5 16 40 16 304 0 194 -4 300 -10
302 -7 2 -7 20 0 57 5 30 10 89 10 133 l0 79 -35 15 c-19 7 -38 13 -42 13 -4
-1 -20 -4 -36 -6z m77 -36 c21 -16 23 -70 5 -164 -7 -37 -14 -69 -15 -71 -2
-3 -124 19 -132 23 -1 1 3 16 9 33 7 21 7 37 0 50 -7 14 -4 31 15 73 14 29 31
57 37 61 19 12 61 9 81 -5z m-900 -167 c61 -32 127 -68 146 -80 19 -11 61 -34
94 -51 l58 -30 22 20 c30 28 113 63 134 57 26 -9 52 -59 59 -114 5 -47 4 -49
-21 -54 -25 -5 -26 -4 -26 47 0 71 -18 87 -68 60 -59 -33 -77 -66 -77 -146 0
-65 2 -71 30 -94 20 -16 43 -25 70 -25 40 -1 40 -1 15 -15 -38 -22 -85 -18
-117 9 -26 23 -28 29 -31 121 l-4 96 -129 64 c-71 36 -131 65 -134 65 -2 0 -8
-14 -13 -32 -9 -35 -20 -42 -41 -29 -12 8 -12 15 2 48 l15 39 -30 17 c-36 20
-48 21 -48 4 0 -18 -27 -53 -35 -46 -3 4 1 23 9 43 14 34 14 37 -4 46 -19 10
-17 40 2 40 6 0 61 -27 122 -60z m446 -202 c0 -63 -10 -74 -49 -54 -17 9 -36
14 -41 11 -6 -3 -10 0 -10 9 0 21 58 76 81 76 16 0 19 -7 19 -42z m-62 -80 c6
-8 7 -30 3 -53 -7 -38 -8 -39 -19 -18 -14 25 -16 83 -3 83 5 0 13 -6 19 -12z
m507 -748 c0 -11 -14 -16 -52 -18 -48 -3 -53 -1 -53 18 0 19 5 21 53 18 38 -2
52 -7 52 -18z m-135 -135 c0 -25 0 -25 -95 -25 -76 0 -95 3 -95 14 0 16 73 33
148 35 38 1 42 -1 42 -24z"/>
</g>
</svg>
